<svg width="50" height="50" viewBox="0 0 50 50" fill="none" xmlns="http://www.w3.org/2000/svg">
<path d="M25 4.16666C13.5 4.16666 4.16663 13.5 4.16663 25C4.16663 36.5 13.5 45.8333 25 45.8333C36.5 45.8333 45.8333 36.5 45.8333 25C45.8333 13.5 36.5 4.16666 25 4.16666ZM15.3125 38.5417C18.0416 36.5833 21.375 35.4167 25 35.4167C28.625 35.4167 31.9583 36.5833 34.6875 38.5417C31.9583 40.5 28.625 41.6667 25 41.6667C21.375 41.6667 18.0416 40.5 15.3125 38.5417ZM37.7916 35.6667C34.1425 32.8036 29.6383 31.2475 25 31.2475C20.3617 31.2475 15.8575 32.8036 12.2083 35.6667C9.70188 32.6778 8.32975 28.9007 8.33329 25C8.33329 15.7917 15.7916 8.33332 25 8.33332C34.2083 8.33332 41.6666 15.7917 41.6666 25C41.6666 29.0625 40.2083 32.7708 37.7916 35.6667Z" fill="#FEFEFE"/>
<path d="M25 12.5C20.9792 12.5 17.7084 15.7708 17.7084 19.7917C17.7084 23.8125 20.9792 27.0833 25 27.0833C29.0209 27.0833 32.2917 23.8125 32.2917 19.7917C32.2917 15.7708 29.0209 12.5 25 12.5ZM25 22.9167C23.2709 22.9167 21.875 21.5208 21.875 19.7917C21.875 18.0625 23.2709 16.6667 25 16.6667C26.7292 16.6667 28.125 18.0625 28.125 19.7917C28.125 21.5208 26.7292 22.9167 25 22.9167Z" fill="#FEFEFE"/>
</svg>
