<svg width="72" height="77" viewBox="0 0 72 77" fill="none" xmlns="http://www.w3.org/2000/svg">
<g clip-path="url(#clip0_10_39)">
<path d="M42.6147 48.3859V65.2296C42.6147 65.8678 42.3776 66.4799 41.9557 66.9311C41.5337 67.3824 40.9614 67.6359 40.3647 67.6359C39.768 67.6359 39.1957 67.3824 38.7737 66.9311C38.3517 66.4799 38.1147 65.8678 38.1147 65.2296V48.3859C38.1147 47.7477 38.3517 47.1357 38.7737 46.6844C39.1957 46.2332 39.768 45.9796 40.3647 45.9796C40.9614 45.9796 41.5337 46.2332 41.9557 46.6844C42.3776 47.1357 42.6147 47.7477 42.6147 48.3859ZM71.8253 41.8018L67.9272 73.0861C67.7827 74.2422 67.2504 75.3029 66.4294 76.0709C65.6084 76.8388 64.5545 77.2617 63.4638 77.2609H17.2656C16.1749 77.2617 15.121 76.8388 14.3 76.0709C13.479 75.3029 12.9467 74.2422 12.8022 73.0861L8.90125 41.8048C8.81624 41.1247 8.86819 40.4331 9.05362 39.7762C9.23905 39.1194 9.55366 38.5125 9.97637 37.9964C10.3991 37.4802 10.9201 37.0667 11.5045 36.7836C12.0889 36.5004 12.7231 36.3542 13.3647 36.3546H23.5938L38.6772 17.9258C38.8883 17.6697 39.148 17.4647 39.439 17.3242C39.7299 17.1838 40.0455 17.1111 40.3647 17.1111C40.6839 17.1111 40.9995 17.1838 41.2904 17.3242C41.5814 17.4647 41.841 17.6697 42.0522 17.9258L57.1356 36.3546H67.3647C68.0055 36.3551 68.6389 36.5019 69.2223 36.7852C69.8058 37.0686 70.326 37.482 70.748 37.9977C71.1701 38.5134 71.4843 39.1195 71.6696 39.7756C71.8549 40.4316 71.907 41.1225 71.8225 41.8018H71.8253ZM29.5731 36.3546H51.1562L40.3647 23.1654L29.5731 36.3546ZM67.3647 41.1671H13.3647L17.2656 72.4484H63.4638L67.3647 41.1671ZM52.9759 48.1453L51.4009 64.989C51.3698 65.3044 51.3973 65.6232 51.4818 65.9272C51.5663 66.2311 51.7061 66.5142 51.8932 66.7602C52.0804 67.0062 52.3111 67.2102 52.5722 67.3605C52.8333 67.5107 53.1196 67.6044 53.4147 67.6359C53.4906 67.6403 53.5666 67.6403 53.6425 67.6359C54.1998 67.6352 54.737 67.4133 55.1501 67.0132C55.5632 66.6131 55.8227 66.0633 55.8784 65.4703L57.4534 48.6265C57.5131 47.9915 57.3345 47.3572 56.9568 46.8631C56.5792 46.3689 56.0334 46.0555 55.4397 45.9917C54.8459 45.9279 54.2528 46.1189 53.7908 46.5228C53.3287 46.9267 53.0356 47.5103 52.9759 48.1453ZM27.7534 48.1453C27.6938 47.5103 27.4007 46.9267 26.9386 46.5228C26.4766 46.1189 25.8834 45.9279 25.2897 45.9917C24.6959 46.0555 24.1502 46.3689 23.7726 46.8631C23.3949 47.3572 23.2163 47.9915 23.2759 48.6265L24.8509 65.4703C24.9069 66.0659 25.1684 66.6178 25.5845 67.0182C26.0005 67.4187 26.5412 67.6389 27.1009 67.6359C27.1768 67.6403 27.2529 67.6403 27.3288 67.6359C27.6227 67.6043 27.908 67.5111 28.1684 67.3616C28.4287 67.2121 28.6589 67.0092 28.8459 66.7645C29.0329 66.5198 29.173 66.2382 29.2582 65.9356C29.3434 65.633 29.3721 65.3155 29.3425 65.0011L27.7534 48.1453Z" fill="black"/>
</g>
<defs>
<clipPath id="clip0_10_39">
<rect width="72" height="77" fill="white"/>
</clipPath>
</defs>
</svg>
